<?xml version="1.0" encoding="utf-8"?>
<!-- Generator: Adobe Illustrator 28.4.1, SVG Export Plug-In . SVG Version: 6.00 Build 0)  -->
<svg version="1.1" id="Layer_1" xmlns="http://www.w3.org/2000/svg" xmlns:xlink="http://www.w3.org/1999/xlink" x="0px" y="0px"
	 viewBox="0 0 250 150" style="enable-background:new 0 0 250 150;" xml:space="preserve">
<style type="text/css">
	.st0{fill:#FADB23;}
	.st1{fill:#F9DB23;}
	.st2{fill:#F9DB22;}
	.st3{fill:#F9DB25;}
	.st4{fill:#F9DC2E;}
</style>
<g>
	<path class="st0" d="M143.4,88.5c-1.8,0-2.6-0.6-4-0.6c-4.8,0-7.5-5.8-5.7-11.7c0.4-1.2,1.8-2.3,2.6-2.3c5.3-0.6,10.1-0.6,15.4-0.6
		c0.9,0,2.2,0.6,2.6,1.8c2.2,6.4,4,12.9,1.8,19.3c-2.6,8.2-7.1,14-13.2,18.1c-10.1,7-25.6-3.5-30-16.4c-5.3-14.6,0-26.3,3.5-39.2
		c1.8-7.6,5.7-12.9,10.6-17.5c4.4-4.1,9.3-4.7,14.1-2.9c4.4,1.2,8.4,3.5,12.3,7c2.2,1.8,4,5.3,4.8,8.2c1.8,10.5-3.1,16.4-11,13.4
		c-0.9-0.6-1.3-2.9-1.8-4.1c-0.4-2.9-0.4-8.2-1.8-9.4c-3.1-2.3-6.6-0.6-9.3,2.3c-6.6,7.6-10.1,27.5-7.5,38.6c1.3,4.7,4,7,7.5,5.8
		C138.5,97.8,141.6,94.9,143.4,88.5z"/>
	<path class="st1" d="M41.1,88.5c-1.3,0-2.2-0.6-3.5-0.6c-4.8,0-7.5-4.7-6.2-10.5c0.4-1.2,1.8-2.9,3.1-2.9c4.8-0.6,10.1-0.6,15-0.6
		c1.3,0,3.1,1.2,3.5,2.9c1.8,7,4,14.6,0,21c-4,7-8.4,14-15.4,16.4c-4.4,1.2-8.8,0.6-12.8-1.8c-10.6-7-16.3-12.3-15.9-31
		C9.4,68.6,13.3,56.9,19.5,47c7.9-13.4,19.4-12.3,28.2-5.8c0.9,0.6,2.2,1.8,3.1,2.3c5.3,3.5,7.9,13.4,4.8,19.9
		c-0.4,1.2-2.2,1.8-3.1,2.3c-1.8,0.6-3.5,0-5.3,0.6c-3.1,0.6-4-1.2-4-5.3c0-2.9-0.4-7.6-1.3-8.2c-2.2-1.2-5.7-0.6-7.9,1.2
		c-8.4,6.4-13.2,28.6-9.7,40.3c1.3,4.1,3.5,5.3,6.6,5.3C34.5,99.6,39.8,94.3,41.1,88.5z"/>
	<path class="st2" d="M211.7,64.5c-0.4,18.7-4.4,31-11.9,41.5c-6.2,8.8-15.4,11.1-24.7,5.8c-10.6-6.4-15.4-17.5-14.1-31
		c1.3-15.2,4.8-30.4,15.9-39.7c7.5-6.4,15-4.1,22.5,0.6C207.3,46.4,212.1,55.1,211.7,64.5z M174.6,84.4c0.4,2.3,0.4,5.8,1.3,8.8
		c1.8,7,6.6,9.4,11,4.7c2.2-1.8,4-5.3,5.3-8.2c2.2-7,4-14,5.3-21c1.3-5.8-2.6-15.8-5.3-16.9c-3.5-1.8-8.4,1.8-11.5,7.6
		C176.9,66.8,175.5,75,174.6,84.4z"/>
	<path class="st2" d="M109,65.1c0,14-2.2,25.1-7.1,34.5c-9.3,16.9-21.2,20.5-34.8,7.6C58.3,99,58.3,87.3,59.2,75
		c0.9-10.5,4.4-19.3,9.3-27.5c6.6-11.7,17.6-14,28.2-7C105.5,46.4,109,55.1,109,65.1z M72,83.8c0.4,2.9,0.9,6.4,1.3,9.4
		C74.6,99,79,101.3,83,99c2.2-1.2,4.8-3.5,5.7-6.4c4.4-9.4,6.6-19.9,5.7-31c-0.4-4.1-1.3-7.6-4.8-9.4c-3.5-1.8-6.6,0-8.8,3.5
		C75.5,63.3,72.8,73.3,72,83.8z"/>
	<path class="st3" d="M225.8,36.4c3.5,1.2,6.6,1.8,8.8,3.5c0.9,0.6,1.3,4.1,0.9,5.8c-1.8,8.2-4,15.8-5.7,24
		c-1.3,5.8-1.8,11.7-2.6,17.5c-0.4,2.9-1.3,4.1-3.5,3.5c-0.4,0-1.3,0-1.8,0c-6.6-1.2-7.9-2.9-6.6-11.1c2.2-13.4,4.8-26.3,7.9-39.7
		C222.7,38.2,224.9,37,225.8,36.4z"/>
	<path class="st4" d="M210.3,105.4c0-5.8,2.2-9.4,6.2-9.4c5.3,0,8.4,3.5,8.4,9.4s-3.1,9.9-7.9,9.9
		C213,114.8,210.3,111.2,210.3,105.4z"/>
</g>
</svg>
